<?xml version="1.0" encoding="UTF-8" standalone="no"?>
<!-- Created with Inkscape (http://www.inkscape.org/) -->

<svg
   width="196mm"
   height="103mm"
   viewBox="0 0 196 103"
   version="1.1"
   id="svg1"
   xml:space="preserve"
   inkscape:version="1.4.2 (ebf0e940, 2025-05-08)"
   sodipodi:docname="CheckerTobi.svg"
   xmlns:inkscape="http://www.inkscape.org/namespaces/inkscape"
   xmlns:sodipodi="http://sodipodi.sourceforge.net/DTD/sodipodi-0.dtd"
   xmlns="http://www.w3.org/2000/svg"
   xmlns:svg="http://www.w3.org/2000/svg"><sodipodi:namedview
     id="namedview1"
     pagecolor="#ffffff"
     bordercolor="#000000"
     borderopacity="0.25"
     inkscape:showpageshadow="2"
     inkscape:pageopacity="0.0"
     inkscape:pagecheckerboard="0"
     inkscape:deskcolor="#d1d1d1"
     inkscape:document-units="mm"
     inkscape:zoom="1.2331864"
     inkscape:cx="261.51764"
     inkscape:cy="275.70852"
     inkscape:window-width="3840"
     inkscape:window-height="1995"
     inkscape:window-x="1800"
     inkscape:window-y="25"
     inkscape:window-maximized="1"
     inkscape:current-layer="layer1" /><defs
     id="defs1" /><g
     inkscape:label="Ebene 1"
     inkscape:groupmode="layer"
     id="layer1"><g
       id="g1"
       style="fill:#ffffff"><path
         style="fill:#ffffff;stroke-width:0.649221"
         d="m 9.7887828,97.771854 c -6.494e-4,-0.220437 0.1186584,-1.740635 0.2657002,-3.378204 0.218417,-2.43243 0.35924,-3.103161 0.769386,-3.66449 0.276126,-0.3779 0.571294,-0.882345 0.655933,-1.120983 0.155502,-0.438417 1.975126,-19.622427 1.975126,-20.823424 0,-0.820682 -0.55598,-0.764831 -1.217705,0.122321 -0.35006,0.469323 -0.525486,1.241389 -0.711365,3.130873 -0.1357,1.379369 -0.304179,2.565041 -0.374399,2.634829 -0.162344,0.161352 -6.6134198,1.14976 -6.7207883,1.029732 -0.043952,-0.04914 0.099331,-1.738398 0.3184564,-3.753868 0.2191186,-2.015473 0.5317569,-5.004325 0.6947376,-6.641901 0.1629872,-1.637569 0.3842477,-3.092366 0.4917009,-3.232888 0.107446,-0.14053 0.6837916,-0.320732 1.2807637,-0.400446 0.5969714,-0.07972 2.4252363,-0.401871 4.0628057,-0.715894 4.232389,-0.811618 20.19095,-3.739811 21.375992,-3.922228 l 0.992257,-0.152742 -0.135824,1.005669 c -0.0747,0.553125 -0.295364,3.788399 -0.490357,7.189504 -0.194993,3.401106 -0.425798,6.252464 -0.512891,6.336338 -0.154807,0.149089 -4.098427,0.803848 -6.309486,1.047549 l -1.112454,0.122613 0.167058,-2.673663 c 0.148996,-2.384654 0.12306,-2.722278 -0.239966,-3.123407 -0.223864,-0.24737 -0.592511,-0.449761 -0.819213,-0.449761 -0.506632,0 -0.573931,0.374717 -0.884369,4.924168 -0.128935,1.889496 -0.390513,5.445203 -0.581279,7.90156 -0.700926,9.025235 -0.7051,9.324724 -0.1407,10.088116 0.49422,0.668467 0.497297,0.725194 0.22889,4.218248 l -0.27207,3.540681 -0.937663,0.125098 c -1.693019,0.225892 -10.381759,1.037409 -11.107224,1.037409 -0.5223051,0 -0.709839,-0.105714 -0.7110532,-0.400809 z M 40.709584,95.341289 c -3.952757,-0.858681 -6.133081,-3.404986 -6.621061,-7.732431 -0.122495,-1.086339 -0.175705,-2.529228 -0.118243,-3.206433 0.05745,-0.677204 0.31249,-4.993106 0.566725,-9.5909 0.478904,-8.660796 0.747389,-10.878956 1.586897,-13.110412 1.506861,-4.005324 5.494332,-6.867925 11.37854,-8.168633 8.338692,-1.843258 12.887901,-0.542215 14.643998,4.188097 0.407581,1.09789 0.435433,1.93886 0.433265,13.08291 -0.0026,13.334108 -0.06497,14.0037 -1.608336,17.264582 -1.461928,3.088812 -4.458596,5.419637 -8.403763,6.536454 -3.426744,0.970071 -9.147765,1.325533 -11.858022,0.736766 z m 8.127462,-9.574749 c 0.347164,-0.273076 0.769437,-0.827312 0.938371,-1.231632 0.413404,-0.989419 1.140558,-21.034738 0.795925,-21.941188 -0.523824,-1.377781 -2.549146,-1.385472 -3.595483,-0.0136 -0.573496,0.751899 -0.624583,1.015561 -0.785779,4.055736 -0.393551,7.422305 -0.717902,17.57635 -0.579111,18.129346 0.366297,1.45944 1.999341,1.966348 3.226077,1.001397 z m 16.378827,3.313052 v -3.825365 l 0.704905,-0.727266 c 0.387695,-0.400005 0.79749,-1.12636 0.910655,-1.61412 0.113173,-0.487766 0.208219,-6.022204 0.211224,-12.298752 l 0.0052,-11.411897 -0.687097,-0.687088 -0.68709,-0.687096 v -3.486182 -3.486183 l 2.233047,-0.408201 c 1.228178,-0.224503 5.531096,-1.021998 9.562031,-1.772195 9.792572,-1.822493 11.157414,-2.032974 13.169273,-2.030866 2.985555,0.0036 4.807271,0.68585 6.378592,2.390543 1.599948,1.735728 2.324572,3.976491 2.324572,7.188258 0,4.219523 -1.636665,7.199182 -5.091656,9.269677 l -1.312657,0.786643 1.083618,0.14587 c 3.312197,0.44588 5.688783,2.832642 6.57861,6.60678 0.43591,1.848833 0.43552,6.00898 -6.5e-4,8.077716 -0.97466,4.621757 -4.188556,7.738292 -9.316082,9.03383 -1.548177,0.391168 -4.979198,0.772016 -21.829595,2.423123 -1.8895,0.185144 -3.615824,0.336968 -3.83626,0.337381 -0.365752,6.48e-4 -0.40081,-0.333813 -0.40081,-3.82461 z m 18.414696,-7.748233 c 1.637961,-0.689218 2.427097,-2.206304 2.427097,-4.666022 0,-3.53267 -1.296806,-4.830622 -4.455441,-4.459387 l -1.284308,0.150948 0.0235,4.641113 c 0.01289,2.552607 0.09121,4.708813 0.173963,4.791568 0.206707,0.206707 2.248796,-0.09367 3.115197,-0.45822 z m -0.759055,-17.65494 c 0.577999,-0.180778 1.319287,-0.609353 1.647304,-0.952396 1.439115,-1.505036 1.247997,-5.094333 -0.31428,-5.902219 -0.674199,-0.34864 -2.171517,-0.432485 -3.385944,-0.189595 l -0.715723,0.143136 v 3.597693 c 0,1.978732 0.06366,3.661392 0.141555,3.739248 0.174861,0.174869 1.23864,-0.0021 2.627088,-0.435867 z M 105.81434,84.83162 c -0.22868,-3.939354 -0.21825,-4.206342 0.18128,-4.640999 0.88911,-0.967279 1.18809,-2.149334 1.03959,-4.110091 -0.0767,-1.01287 -0.24321,-3.799793 -0.36998,-6.193173 -0.6421,-12.122407 -0.93128,-16.40115 -1.14824,-16.989326 -0.13107,-0.355319 -0.53526,-0.903694 -0.89822,-1.218615 l -0.65993,-0.572579 -0.0756,-3.660196 -0.0756,-3.660203 1.60321,-0.294276 c 0.88177,-0.161851 4.90126,-0.901359 8.9322,-1.643345 4.03094,-0.741986 7.35838,-1.320719 7.39431,-1.286081 0.0359,0.03468 0.21206,1.732288 0.39141,3.772547 l 0.32608,3.70956 -0.6777,0.935526 c -0.85946,1.186448 -0.86434,1.660399 -0.11249,10.947737 0.31086,3.84002 0.72926,9.040517 0.92978,11.556659 0.39173,4.915229 0.62985,5.816196 1.70512,6.451371 0.61297,0.362084 0.63066,0.435632 0.89469,3.718326 0.14814,1.841912 0.3252,3.820009 0.39343,4.395773 l 0.12408,1.046844 -2.82147,0.277684 c -1.55181,0.152721 -5.91339,0.582692 -9.6924,0.955487 -3.779,0.372801 -6.93165,0.678571 -7.00587,0.679504 -0.0742,6.48e-4 -0.24414,-1.879234 -0.37759,-4.178134 z M 9.395368,58.796313 c -1.7321544,-0.435675 -2.7964935,-1.9116 -2.8063357,-3.891557 -0.00584,-1.207705 0.8364494,-9.477231 1.1387984,-11.178414 0.5134818,-2.889134 1.9715996,-4.776315 4.6637893,-6.03614 0.783084,-0.36645 2.03836,-0.781388 2.789509,-0.922089 1.540809,-0.288615 4.412294,-0.150513 5.573043,0.268028 l 0.771865,0.278332 -0.160422,2.773628 c -0.09359,1.618235 -0.272017,2.877882 -0.428318,3.023888 -0.254644,0.237884 -4.463764,1.242485 -5.194306,1.239744 -0.270842,-0.0014 -0.345302,-0.30545 -0.343548,-1.404585 0.0019,-1.084566 -0.08822,-1.46107 -0.396084,-1.657744 -0.322235,-0.205838 -0.51195,-0.140843 -0.993023,0.34023 -0.554889,0.554898 -0.616799,0.8383 -0.924919,4.234349 -0.18162,2.001797 -0.41954,4.443186 -0.528706,5.425292 -0.252099,2.268023 -0.149341,2.680447 0.667854,2.680447 0.935917,0 1.185886,-0.476886 1.474036,-2.812175 l 0.260598,-2.111984 2.738941,-0.608983 c 1.506413,-0.334939 2.792584,-0.57582 2.858156,-0.535301 0.06557,0.04052 0.0078,1.625563 -0.128448,3.522294 -0.281723,3.922747 -0.262468,3.881494 -2.488861,5.331975 -2.325931,1.51532 -6.586516,2.533017 -8.543619,2.040765 z m 12.402154,-4.080304 c 0.09105,-1.004758 0.302537,-1.929809 0.488078,-2.134821 0.232629,-0.257054 0.460467,-1.938198 0.787044,-5.807301 0.522435,-6.18951 0.563109,-7.72511 0.213873,-8.074348 -0.160215,-0.160206 -0.190202,-0.809609 -0.08616,-1.865512 l 0.159605,-1.619745 2.433722,-0.581075 c 1.338551,-0.319585 2.680368,-0.650301 2.98182,-0.734908 l 0.548092,-0.153846 -0.166571,3.143204 -0.16657,3.143204 0.878143,-0.57968 c 1.996841,-1.318148 4.543118,-1.686 5.649021,-0.816103 0.980356,0.771154 1.096495,1.70354 0.792016,6.358467 -0.213729,3.26764 -0.213385,4.290571 0.0013,4.634767 0.154891,0.248017 0.275834,1.239637 0.275834,2.261593 0,2.115052 0.328026,1.870639 -3.414649,2.544311 -1.789227,0.322063 -2.687261,0.396131 -2.84845,0.234943 -0.161195,-0.161196 -0.148405,-1.554116 0.04058,-4.418205 0.151781,-2.300531 0.274114,-4.711256 0.271855,-5.357163 -0.0052,-1.417723 -0.401712,-1.878686 -1.334727,-1.550754 l -0.616149,0.216555 -0.261637,3.659106 c -0.224533,3.140178 -0.213892,3.73489 0.07501,4.193467 0.260254,0.413101 0.300531,0.919866 0.177471,2.233058 -0.08755,0.934273 -0.184826,1.698683 -0.216184,1.698683 -0.03135,0 -1.424378,0.257659 -3.095609,0.57258 -1.671232,0.314914 -3.193642,0.572573 -3.383137,0.572573 -0.290858,0 -0.319501,-0.276224 -0.183866,-1.77305 z m 17.738452,-2.367905 c -1.227281,-0.734495 -1.577198,-1.668746 -1.561539,-4.169176 0.01967,-3.13985 0.344464,-7.019201 0.680241,-8.12456 0.382774,-1.260096 1.547405,-2.60853 2.915859,-3.37606 2.585686,-1.450239 7.602561,-2.179407 9.335864,-1.356894 1.244017,0.590326 1.483755,1.41642 1.483755,5.112848 0,1.775991 -0.02577,3.233458 -0.05726,3.238806 -0.03149,0.005 -1.912411,0.394173 -4.179815,0.864051 l -4.122554,0.854316 -0.06724,1.389929 c -0.08328,1.721479 0.304784,2.224385 1.291509,1.673702 0.455512,-0.254205 0.660524,-0.609538 0.817492,-1.416904 0.128085,-0.658775 0.350625,-1.116618 0.572574,-1.177982 1.141065,-0.315497 5.547432,-1.096856 5.643542,-1.000741 0.06278,0.06281 0.03402,1.081852 -0.06382,2.264633 l -0.177965,2.150523 -1.405823,0.942448 c -0.773196,0.518352 -2.319154,1.279166 -3.435457,1.690708 -1.688994,0.622663 -2.43326,0.764097 -4.434465,0.842686 -2.157335,0.08472 -2.490249,0.0433 -3.234887,-0.402333 z m 5.893531,-11.005212 c 1.028561,-0.258991 1.029197,-0.259782 0.960289,-1.202407 -0.06051,-0.827448 -0.143017,-0.951827 -0.672217,-1.013155 -0.750681,-0.08699 -1.572529,0.863424 -1.572529,1.818526 0,0.75479 -0.06122,0.735884 1.284457,0.397036 z m 12.113841,8.287257 c -1.429305,-0.24113 -2.352855,-0.844509 -2.882898,-1.883478 -0.455123,-0.892122 -0.477548,-1.220694 -0.39433,-5.77831 0.08149,-4.462947 0.129175,-4.924458 0.623758,-6.036476 0.924802,-2.079354 2.754969,-3.275515 6.435826,-4.206327 1.502641,-0.37998 2.391866,-0.459766 4.322448,-0.387821 3.463452,0.129072 3.461251,0.127149 3.461251,3.018598 v 2.357451 l -2.901876,0.601307 c -1.596032,0.330722 -2.987397,0.54846 -3.091915,0.483856 -0.104524,-0.06459 -0.190039,-0.510995 -0.190039,-0.992004 0,-1.116461 -0.471705,-1.560382 -1.271052,-1.196176 -0.901891,0.410929 -1.034287,1.164437 -0.967171,5.504479 l 0.06245,4.036793 h 0.794842 c 1.012648,0 1.372914,-0.643877 1.377576,-2.462082 0.0019,-0.724312 0.04142,-1.31693 0.08798,-1.31693 0.04655,0 1.328274,-0.25766 2.848314,-0.57258 1.520041,-0.314914 2.873329,-0.572573 3.007309,-0.572573 0.158494,0 0.243608,0.95397 0.243608,2.730523 v 2.730524 l -0.973382,0.834291 c -2.378376,2.038528 -7.690322,3.596575 -10.592671,3.106935 z m 13.398299,-4.252771 c 0,-1.479999 0.09803,-2.108915 0.400803,-2.571358 0.359343,-0.548852 0.400802,-1.327299 0.400802,-7.526094 0,-6.263357 -0.03772,-6.95558 -0.400802,-7.356625 -0.311976,-0.344587 -0.400803,-0.851973 -0.400803,-2.289344 0,-1.728435 0.03298,-1.853961 0.515319,-1.96107 0.283423,-0.06295 1.93086,-0.453592 3.660976,-0.868124 1.730109,-0.414532 3.195716,-0.703624 3.256915,-0.642439 0.06124,0.06117 0.121046,2.55349 0.13301,5.538433 0.01196,2.984942 0.09231,5.423981 0.17855,5.420086 0.247846,-0.01125 1.59017,-1.878879 1.859501,-2.587281 0.13422,-0.353033 0.244043,-1.143557 0.244043,-1.7567 0,-0.867027 0.08909,-1.13932 0.400803,-1.225088 0.220444,-0.0606 1.637569,-0.387179 3.149178,-0.725614 1.511596,-0.338435 3.07012,-0.696062 3.463373,-0.794719 l 0.715011,-0.179375 0.156937,1.934195 c 0.15379,1.895285 0.144924,1.94366 -0.440118,2.40386 -0.328394,0.258307 -1.146064,1.250404 -1.817066,2.204673 l -1.219997,1.735015 1.506468,2.454271 c 0.866287,1.411301 1.778897,2.615196 2.147526,2.832955 0.624521,0.368907 0.641057,0.430476 0.641057,2.386833 v 2.008156 L 86.6875,44.326702 c -1.543092,0.283075 -3.01985,0.565551 -3.281675,0.627726 -0.406429,0.09651 -0.774929,-0.383277 -2.519345,-3.280137 l -2.043278,-3.393172 -0.07022,1.231105 c -0.0564,0.989533 0.02222,1.329492 0.400802,1.732488 0.400703,0.426538 0.471025,0.79835 0.471025,2.490646 0,1.094086 -0.09408,1.989256 -0.209086,1.989256 -0.2206,0 -7.096813,1.285412 -7.978759,1.491521 -0.503633,0.117692 -0.515319,0.07598 -0.515319,-1.838757 z m 23.59016,-2.941924 c -2.746168,-0.606249 -3.422077,-1.682034 -3.689364,-5.872075 -0.442476,-6.936167 -0.185828,-8.73355 1.485731,-10.405116 1.877041,-1.877041 6.033534,-3.279376 10.369688,-3.498573 2.31225,-0.116888 2.6529,-0.08166 3.58825,0.371142 1.73206,0.838471 2.14937,1.875417 2.41566,6.002479 0.1006,1.559215 0.12272,2.90537 0.0491,2.991451 -0.0736,0.08608 -2.19502,0.57461 -4.71435,1.08562 -2.51934,0.511017 -4.812517,0.983636 -5.09594,1.050269 -0.457907,0.107659 -0.515319,0.26268 -0.515319,1.391518 0,1.631822 0.280526,2.15637 1.153214,2.15637 1.011655,0 1.595155,-0.71212 1.595155,-1.946765 0,-0.566847 0.0258,-1.031726 0.0572,-1.033065 0.0315,-0.0014 1.75781,-0.351531 3.83627,-0.778218 2.07845,-0.426681 3.80469,-0.752027 3.83609,-0.722994 0.0314,0.02905 0.12316,1.132648 0.20393,2.45249 l 0.14682,2.399701 -1.00553,0.745034 c -3.52648,2.612917 -10.236082,4.379117 -13.716731,3.610732 z m 5.395318,-12.77018 c 0.909317,-0.228967 1.017547,-0.326414 1.017547,-0.916127 0,-0.875452 -0.7731,-1.650138 -1.443159,-1.446138 -0.903673,0.275121 -1.305216,0.809766 -1.305216,1.737857 0,0.992411 0.11072,1.032353 1.730828,0.624408 z m 11.218677,9.814392 c -0.0483,-0.155335 -0.13478,-1.162956 -0.19206,-2.239147 -0.0907,-1.703376 -0.0454,-2.029206 0.34923,-2.516638 0.41103,-0.507606 0.43995,-0.78497 0.30934,-2.967453 -0.31535,-5.269358 -0.39045,-5.776986 -0.92946,-6.283068 -0.42076,-0.395055 -0.53035,-0.814287 -0.64426,-2.464539 l -0.13724,-1.988509 0.7321,-0.153704 c 0.40266,-0.08454 2.25871,-0.503768 4.12454,-0.931631 1.86584,-0.427863 3.48909,-0.777934 3.60723,-0.777934 0.11815,0 0.21481,0.261249 0.21481,0.580549 0,0.570401 0.0126,0.566192 0.72108,-0.240732 0.82624,-0.941017 1.58082,-1.380452 2.74576,-1.599001 l 0.81718,-0.153298 0.13761,1.221563 c 0.0757,0.671856 0.20628,2.100661 0.29021,3.175114 l 0.1526,1.953558 -1.24596,0.392756 c -2.30459,0.726461 -2.80002,1.84518 -2.43418,5.496695 0.25414,2.536535 0.42074,3.040694 1.07329,3.247807 0.35742,0.113434 0.4511,0.469957 0.58315,2.219143 0.0865,1.1462 0.11222,2.129089 0.057,2.184214 -0.0551,0.05512 -2.24988,0.507984 -4.87723,1.006346 -2.62735,0.49837 -4.90974,0.954319 -5.07197,1.013226 -0.16223,0.05889 -0.33451,-0.02001 -0.38286,-0.175317 z"
         id="path3432" /><path
         d="m 123.48436,50.623241 q 7.70127,-3.20886 14.86772,-4.385442 7.16645,-1.283544 14.01202,-1.283544 12.9424,0 20.0019,4.385442 7.16645,4.27848 7.16645,13.049363 0,7.273416 -3.95759,11.76582 -3.85064,4.385442 -12.30063,6.631644 3.74367,1.818354 6.52468,5.3481 2.78101,3.529746 2.78101,9.305694 0,3.529746 -1.28354,7.701262 -1.17659,4.06456 -4.81329,7.5943 -3.52975,3.52975 -10.16139,5.88291 -6.63165,2.35317 -17.32785,2.35317 -4.81329,0 -9.30569,-0.74874 -4.38544,-0.74873 -8.34304,-1.92531 -3.85063,-1.28355 -7.05949,-2.88798 -3.1019,-1.71139 -5.3481,-3.52974 l 4.49241,-17.434808 h 24.49429 l -0.42785,1.497468 q -0.32088,1.283544 -0.42784,2.13924 -0.10697,0.748734 -0.10697,1.497468 0,3.957592 4.06456,3.957592 1.28354,0 2.2462,-0.64177 1.06962,-0.74873 1.71139,-1.818354 0.74874,-1.176582 1.06962,-2.567088 0.32089,-1.390506 0.32089,-2.781012 0,-2.246202 -1.28354,-3.529746 -1.28355,-1.390506 -4.70633,-1.390506 h -11.5519 l 3.9576,-15.50949 h 13.04936 q 3.52975,0 5.24114,-2.032278 1.71139,-2.13924 1.71139,-4.920252 0,-2.460126 -1.28354,-3.20886 -1.17659,-0.855696 -2.35317,-0.855696 -2.67405,0 -3.74367,1.711392 -1.06962,1.60443 -1.71139,4.706328 l -0.21392,0.962658 h -24.70822 z"
         id="text3432"
         style="font-style:italic;font-weight:750;font-size:106.962px;line-height:0;font-family:'Neue Aachen Pro';-inkscape-font-specification:'Neue Aachen Pro weight=750 Italic';text-align:center;text-anchor:middle;stroke-width:0;fill:#ffffff"
         transform="matrix(0.92030239,-0.25565449,0.3221795,0.99709984,0,0)"
         aria-label="3" /></g></g></svg>
