<?xml version="1.0" encoding="UTF-8" standalone="no"?>
<!-- Created with Inkscape (http://www.inkscape.org/) -->

<svg
   width="305.25323mm"
   height="25.12841mm"
   viewBox="0 0 305.25323 25.12841"
   version="1.1"
   id="svg1"
   inkscape:version="1.4.2 (ebf0e940, 2025-05-08)"
   sodipodi:docname="DeineCrewlang.svg"
   xmlns:inkscape="http://www.inkscape.org/namespaces/inkscape"
   xmlns:sodipodi="http://sodipodi.sourceforge.net/DTD/sodipodi-0.dtd"
   xmlns="http://www.w3.org/2000/svg"
   xmlns:svg="http://www.w3.org/2000/svg">
  <sodipodi:namedview
     id="namedview1"
     pagecolor="#ffffff"
     bordercolor="#000000"
     borderopacity="0.25"
     inkscape:showpageshadow="2"
     inkscape:pageopacity="0.0"
     inkscape:pagecheckerboard="0"
     inkscape:deskcolor="#d1d1d1"
     inkscape:document-units="mm"
     inkscape:zoom="1.1232406"
     inkscape:cx="536.83957"
     inkscape:cy="-254.17529"
     inkscape:window-width="3008"
     inkscape:window-height="1540"
     inkscape:window-x="1800"
     inkscape:window-y="25"
     inkscape:window-maximized="0"
     inkscape:current-layer="layer1" />
  <defs
     id="defs1">
    <rect
       x="-327.71912"
       y="394.13397"
       width="1406.6881"
       height="670.68103"
       id="rect5" />
    <rect
       x="683.74622"
       y="291.78979"
       width="117.58693"
       height="58.793465"
       id="rect4" />
    <rect
       x="216.66481"
       y="856.86029"
       width="452.92743"
       height="165.49272"
       id="rect3" />
    <rect
       x="178.55794"
       y="591.20099"
       width="361.47095"
       height="211.22096"
       id="rect2" />
    <rect
       x="46.81702"
       y="296.14487"
       width="644.5506"
       height="238.44017"
       id="rect1" />
  </defs>
  <g
     inkscape:label="Ebene 1"
     inkscape:groupmode="layer"
     id="layer1"
     transform="translate(52.001177,-63.93425)">
    <path
       d="m 271.08926,284.35195 h -8.15466 v 20.53331 h 8.15466 c 6.74666,0 10.64798,-3.78399 10.64798,-10.26665 0,-6.71733 -3.63732,-10.26666 -10.64798,-10.26666 z m -0.73334,16.13332 h -1.75999 v -11.73332 h 1.75999 c 3.75467,0 5.544,1.87733 5.544,5.86666 0,3.78399 -1.96533,5.86666 -5.544,5.86666 z m 28.42398,-11.73332 v -4.4 h -14.57865 v 20.53331 h 14.57865 v -4.39999 h -8.91732 v -3.90133 h 7.74399 v -4.16533 h -7.74399 v -3.66666 z m 8.56535,16.13331 v -20.53331 h -5.66133 v 20.53331 z m 15.89867,-20.53331 v 11.90932 l -6.71733,-11.90932 h -6.13066 v 20.53331 h 5.42666 v -11.87998 l 6.71733,11.87998 h 6.13066 v -20.53331 z m 14.10928,20.53331 h 5.66133 v -6.27732 h 2.52266 l 3.08,6.27732 h 5.95466 l -4.01866,-7.30399 c 2.17066,-1.17333 3.43199,-3.37333 3.43199,-6.04266 0,-4.28266 -2.96266,-7.18666 -7.39199,-7.18666 h -9.23999 z m 8.00799,-10.67732 h -2.40533 v -5.45599 h 2.40533 c 1.76,0 2.87467,1.056 2.87467,2.72799 0,1.672 -1.11467,2.728 -2.87467,2.728 z m 25.75461,-5.45599 v -4.4 h -14.57865 v 20.53331 h 14.57865 v -4.39999 h -8.91732 v -3.90133 h 7.74399 v -4.16533 h -7.74399 v -3.66666 z m 15.752,-4.4 v 11.90932 l -6.71732,-11.90932 h -6.13066 v 20.53331 h 5.42666 v -11.87998 l 6.71733,11.87998 h 6.13066 v -20.53331 z m 21.32529,0 v 11.90932 l -6.71732,-11.90932 h -6.13066 v 20.53331 h 5.42666 v -11.87998 l 6.71732,11.87998 h 6.13066 v -20.53331 z m 8.4773,20.53331 h 5.66133 v -6.27732 h 2.52266 l 3.08,6.27732 h 5.95466 l -4.01866,-7.30399 c 2.17066,-1.17333 3.43199,-3.37333 3.43199,-6.04266 0,-4.28266 -2.96266,-7.18666 -7.39199,-7.18666 h -9.23999 z m 8.00799,-10.67732 h -2.40533 v -5.45599 h 2.40533 c 1.76,0 2.87467,1.056 2.87467,2.72799 0,1.672 -1.11467,2.728 -2.87467,2.728 z m 23.31996,-9.85599 h -6.15999 l -7.15733,20.53331 h 5.456 l 1.08533,-3.46133 h 7.39199 l 1.08533,3.46133 h 5.45599 z m -5.71999,13.14132 2.63999,-8.50666 2.64,8.50666 z m 22.90931,-13.14132 H 457.033 v 20.53331 h 8.15466 c 6.74666,0 10.64799,-3.78399 10.64799,-10.26665 0,-6.71733 -3.63733,-10.26666 -10.64799,-10.26666 z m -0.73333,16.13332 h -1.76 v -11.73332 h 1.76 c 3.75466,0 5.54399,1.87733 5.54399,5.86666 0,3.78399 -1.96533,5.86666 -5.54399,5.86666 z"
       id="text1"
       style="font-weight:bold;font-size:29.3333px;line-height:0;font-family:'Eloquia Display';-inkscape-font-specification:'Eloquia Display Bold';text-align:center;white-space:pre;fill:#ffffff;stroke-width:0.377953"
       transform="matrix(0.23778307,0,0,0.23778307,-114.52256,16.142596)"
       aria-label="DEIN RENNRAD" />
    <path
       d="m 279.19934,579.40859 h -8.15466 v 20.53331 h 8.15466 c 6.74666,0 10.64799,-3.78399 10.64799,-10.26665 0,-6.71733 -3.63733,-10.26666 -10.64799,-10.26666 z m -0.73333,16.13332 h -1.76 v -11.73332 h 1.76 c 3.75466,0 5.54399,1.87733 5.54399,5.86666 0,3.78399 -1.96533,5.86666 -5.54399,5.86666 z m 28.42397,-11.73332 v -4.4 h -14.57865 v 20.53331 h 14.57865 v -4.39999 h -8.91732 v -3.90133 h 7.74399 v -4.16533 h -7.74399 v -3.66666 z m 8.56535,16.13331 V 579.40859 H 309.794 V 599.9419 Z M 331.354,579.40859 v 11.90932 l -6.71733,-11.90932 h -6.13065 v 20.53331 h 5.42666 V 588.06192 L 330.65,599.9419 h 6.13066 v -20.53331 z m 23.05595,4.4 v -4.4 H 339.8313 v 20.53331 h 14.57865 v -4.39999 h -8.91732 v -3.90133 h 7.74399 v -4.16533 h -7.74399 v -3.66666 z m 18.27465,11.96798 c -2.78666,0 -4.54666,-2.34666 -4.54666,-6.10132 0,-3.72533 1.76,-6.10133 4.51733,-6.10133 2.14133,0 3.81333,1.43733 4.10666,3.57866 h 5.77866 c -0.352,-4.78132 -4.39999,-8.09599 -9.88532,-8.09599 -6.15999,0 -10.29599,4.224 -10.29599,10.58932 0,6.36533 4.136,10.64799 10.29599,10.64799 5.39733,0 9.38666,-3.22666 10.00266,-8.09599 h -5.83733 c -0.32267,2.2 -1.90666,3.57866 -4.136,3.57866 z m 12.43734,4.16533 h 5.66132 v -6.27732 h 2.52267 l 3.07999,6.27732 h 5.95466 l -4.01866,-7.30399 c 2.17067,-1.17333 3.432,-3.37333 3.432,-6.04266 0,-4.28266 -2.96267,-7.18666 -7.39199,-7.18666 h -9.23999 z m 8.00799,-10.67732 h -2.40533 v -5.45599 h 2.40533 c 1.76,0 2.87466,1.056 2.87466,2.72799 0,1.672 -1.11466,2.728 -2.87466,2.728 z m 25.75462,-5.45599 v -4.4 H 404.3059 v 20.53331 h 14.57865 v -4.39999 h -8.91733 v -3.90133 h 7.74399 v -4.16533 h -7.74399 v -3.66666 z m 24.19999,-4.4 -2.75733,13.55199 -3.344,-13.25865 h -4.63466 l -3.344,13.25865 -2.75733,-13.55199 h -5.42666 l 4.81066,20.53331 h 5.544 l 3.49066,-13.02398 3.49066,13.02398 h 5.51466 l 4.84,-20.53331 z"
       id="text2"
       style="font-weight:bold;font-size:29.3333px;line-height:0;font-family:'Eloquia Display';-inkscape-font-specification:'Eloquia Display Bold';text-align:center;white-space:pre;fill:#ffffff;stroke-width:0.377953"
       transform="matrix(1.1832217,0,0,1.1832217,-320.81193,-621.21808)"
       aria-label="DEINE CREW" />
    <path
       d="m 363.17999,845.0668 h -8.15465 v 20.53331 h 8.15465 c 6.74666,0 10.64799,-3.784 10.64799,-10.26666 0,-6.71732 -3.63733,-10.26665 -10.64799,-10.26665 z m -0.73333,16.13331 h -1.76 v -11.73332 h 1.76 c 3.75466,0 5.54399,1.87733 5.54399,5.86666 0,3.784 -1.96533,5.86666 -5.54399,5.86666 z m 28.42398,-11.73332 v -4.39999 h -14.57865 v 20.53331 h 14.57865 v -4.4 h -8.91732 v -3.90133 h 7.74399 v -4.16533 h -7.74399 v -3.66666 z m 8.56534,16.13332 V 845.0668 h -5.66132 v 20.53331 z m 15.89867,-20.53331 v 11.90932 l -6.71732,-11.90932 h -6.13066 v 20.53331 h 5.42666 v -11.87999 l 6.71733,11.87999 h 6.13066 V 845.0668 Z m 27.33861,0 -4.42933,14.60798 -4.42933,-14.60798 h -5.54399 l 7.06932,20.53331 h 5.80799 l 7.06933,-20.53331 z m 21.99998,4.39999 V 845.0668 H 450.0946 v 20.53331 h 14.57864 v -4.4 h -8.91732 v -3.90133 h 7.74399 v -4.16533 h -7.74399 v -3.66666 z m 2.90402,16.13332 h 5.66133 v -6.27733 h 2.52266 l 3.08,6.27733 h 5.95466 l -4.01866,-7.304 c 2.17066,-1.17333 3.43199,-3.37333 3.43199,-6.04266 0,-4.28266 -2.96266,-7.18665 -7.39199,-7.18665 h -9.23999 z m 8.00799,-10.67733 h -2.40533 v -5.45599 h 2.40533 c 1.76,0 2.87467,1.056 2.87467,2.728 0,1.672 -1.11467,2.72799 -2.87467,2.72799 z m 25.75462,-5.45599 v -4.39999 h -14.57865 v 20.53331 h 14.57865 v -4.4 h -8.91732 v -3.90133 h 7.74399 v -4.16533 h -7.74399 v -3.66666 z m 8.56534,16.13332 V 845.0668 h -5.66132 v 20.53331 z m 15.89867,-20.53331 v 11.90932 l -6.71733,-11.90932 h -6.13066 v 20.53331 h 5.42666 v -11.87999 l 6.71733,11.87999 h 6.13066 V 845.0668 Z"
       id="text3"
       style="font-weight:bold;font-size:29.3333px;line-height:0;font-family:'Eloquia Display';-inkscape-font-specification:'Eloquia Display Bold';text-align:center;white-space:pre;fill:#ffffff;stroke-width:0.377953"
       transform="matrix(0.23886814,0,0,0.23886814,126.358,-137.47954)"
       aria-label="DEIN VEREIN" />
  </g>
</svg>
