<?xml version="1.0" encoding="UTF-8" standalone="no"?>
<!-- Created with Inkscape (http://www.inkscape.org/) -->

<svg
   width="223.01797mm"
   height="17.878746mm"
   viewBox="0 0 223.01797 17.878746"
   version="1.1"
   id="svg1"
   inkscape:version="1.4.2 (ebf0e940, 2025-05-08)"
   sodipodi:docname="deinecrew2.svg"
   xmlns:inkscape="http://www.inkscape.org/namespaces/inkscape"
   xmlns:sodipodi="http://sodipodi.sourceforge.net/DTD/sodipodi-0.dtd"
   xmlns="http://www.w3.org/2000/svg"
   xmlns:svg="http://www.w3.org/2000/svg">
  <sodipodi:namedview
     id="namedview1"
     pagecolor="#ffffff"
     bordercolor="#000000"
     borderopacity="0.25"
     inkscape:showpageshadow="2"
     inkscape:pageopacity="0.0"
     inkscape:pagecheckerboard="0"
     inkscape:deskcolor="#d1d1d1"
     inkscape:document-units="mm"
     inkscape:zoom="0.499127"
     inkscape:cx="297.51947"
     inkscape:cy="-168.29384"
     inkscape:window-width="1512"
     inkscape:window-height="817"
     inkscape:window-x="0"
     inkscape:window-y="33"
     inkscape:window-maximized="0"
     inkscape:current-layer="layer1" />
  <defs
     id="defs1">
    <rect
       x="58.222378"
       y="-1066.1973"
       width="564.02924"
       height="145.55594"
       id="rect3" />
    <rect
       x="-189.22272"
       y="-1288.17"
       width="1011.6138"
       height="298.38968"
       id="rect2" />
    <rect
       x="-1045.1045"
       y="-1006.397"
       width="879.68036"
       height="167.0515"
       id="rect1" />
    <rect
       x="-1045.1045"
       y="-1006.397"
       width="879.68036"
       height="167.0515"
       id="rect1-0" />
    <rect
       x="-1045.1045"
       y="-1006.397"
       width="879.68036"
       height="167.0515"
       id="rect1-1" />
    <rect
       x="-1045.1045"
       y="-1006.397"
       width="879.68036"
       height="167.0515"
       id="rect1-0-6" />
  </defs>
  <g
     inkscape:label="Ebene 1"
     inkscape:groupmode="layer"
     id="layer1"
     transform="translate(-21.613901,-64.091765)">
    <path
       d="m -917.09115,-1043.9184 h -25.94666 v 65.33335 h 25.94666 c 21.46666,0 33.87999,-12.03999 33.87999,-32.66665 0,-21.3733 -11.57333,-32.6667 -33.87999,-32.6667 z m -2.33333,51.33336 h -5.6 v -37.33336 h 5.6 c 11.94666,0 17.63999,5.9734 17.63999,18.6667 0,12.03999 -6.25333,18.66666 -17.63999,18.66666 z m 90.44,-37.33336 v -14 h -46.38665 v 65.33335 h 46.38665 v -13.99999 h -28.37332 v -12.41336 h 24.63999 v -13.2533 h -24.63999 v -11.6667 z m 27.25339,51.33335 v -65.33335 h -18.01333 v 65.33335 z m 50.58672,-65.33335 v 37.8934 l -21.37332,-37.8934 h -19.50666 v 65.33335 h 17.26666 v -37.79995 l 21.37332,37.79995 h 19.50666 v -65.33335 z m 44.8932,65.33335 h 18.01332 v -19.97332 h 8.02667 l 9.79999,19.97332 h 18.94666 l -12.78666,-23.23995 c 6.90667,-3.7334 10.92,-10.7334 10.92,-19.2267 0,-13.6267 -9.42667,-22.8667 -23.51999,-22.8667 h -29.39999 z m 25.47999,-33.97335 h -7.65333 v -17.36 h 7.65333 c 5.6,0 9.14666,3.36 9.14666,8.68 0,5.32 -3.54666,8.68 -9.14666,8.68 z m 81.94659,-17.36 v -14 h -46.38665 v 65.33335 h 46.38665 v -13.99999 h -28.37332 v -12.41336 h 24.63999 v -13.2533 h -24.63999 v -11.6667 z m 50.12004,-14 v 37.8934 l -21.37332,-37.8934 h -19.50666 v 65.33335 h 17.26666 v -37.79995 l 21.37332,37.79995 h 19.50666 v -65.33335 z m 67.85324,0 v 37.8934 l -21.37332,-37.8934 h -19.50666 v 65.33335 h 17.26666 v -37.79995 l 21.37333,37.79995 h 19.50665 v -65.33335 z m 26.97326,65.33335 h 18.01333 v -19.97332 h 8.02666 l 9.8,19.97332 h 18.94666 l -12.78667,-23.23995 c 6.90667,-3.7334 10.92,-10.7334 10.92,-19.2267 0,-13.6267 -9.42666,-22.8667 -23.51999,-22.8667 h -29.39999 z m 25.47999,-33.97335 h -7.65333 v -17.36 h 7.65333 c 5.6,0 9.14666,3.36 9.14666,8.68 0,5.32 -3.54666,8.68 -9.14666,8.68 z m 74.19988,-31.36 h -19.59999 l -22.77332,65.33335 h 17.35999 l 3.45333,-11.01333 h 23.51999 l 3.45333,11.01333 h 17.36 z m -18.19999,41.8134 8.4,-27.0667 8.39999,27.0667 z m 72.89332,-41.8134 h -25.94666 v 65.33335 h 25.94666 c 21.46666,0 33.87999,-12.03999 33.87999,-32.66665 0,-21.3733 -11.57333,-32.6667 -33.87999,-32.6667 z m -2.33333,51.33336 h -5.6 v -37.33336 h 5.6 c 11.94666,0 17.63999,5.9734 17.63999,18.6667 0,12.03999 -6.25333,18.66666 -17.63999,18.66666 z"
       id="text1-6"
       style="font-weight:bold;font-size:93.3333px;line-height:0;font-family:'Eloquia Display';-inkscape-font-specification:'Eloquia Display Bold';text-align:center;white-space:pre;fill:#ffffff;stroke-width:0.377953"
       transform="matrix(0.05632764,0,0,0.05632764,74.733005,136.83217)"
       aria-label="DEIN RENNRAD" />
    <path
       d="m -859.64464,-1043.9184 h -25.94666 v 65.33335 h 25.94666 c 21.46666,0 33.87998,-12.03999 33.87998,-32.66665 0,-21.3733 -11.57333,-32.6667 -33.87998,-32.6667 z m -2.33334,51.33336 h -5.59999 v -37.33336 h 5.59999 c 11.94667,0 17.64,5.9734 17.64,18.6667 0,12.03999 -6.25333,18.66666 -17.64,18.66666 z m 90.44001,-37.33336 v -14 h -46.38665 v 65.33335 h 46.38665 v -13.99999 h -28.37332 v -12.41336 h 24.63999 v -13.2533 h -24.63999 v -11.6667 z m 27.25338,51.33335 v -65.33335 h -18.01332 v 65.33335 z m 50.58673,-65.33335 v 37.8934 l -21.37332,-37.8934 h -19.50666 v 65.33335 h 17.26666 v -37.79995 l 21.37332,37.79995 h 19.50666 v -65.33335 z m 86.98651,0 -14.09332,46.48003 -14.09333,-46.48003 h -17.64 l 22.49333,65.33335 h 18.47999 l 22.49333,-65.33335 z m 70.00002,14 v -14 h -46.38665 v 65.33335 h 46.38665 v -13.99999 h -28.37333 v -12.41336 h 24.63999 v -13.2533 h -24.63999 v -11.6667 z m 9.24006,51.33335 h 18.01332 v -19.97332 h 8.02667 l 9.79999,19.97332 h 18.94666 l -12.78666,-23.23995 c 6.90666,-3.7334 10.92,-10.7334 10.92,-19.2267 0,-13.6267 -9.42667,-22.8667 -23.52,-22.8667 h -29.39998 z m 25.47999,-33.97335 h -7.65333 v -17.36 h 7.65333 c 5.59999,0 9.14666,3.36 9.14666,8.68 0,5.32 -3.54667,8.68 -9.14666,8.68 z m 81.94657,-17.36 v -14 h -46.38665 v 65.33335 h 46.38665 v -13.99999 h -28.37332 v -12.41336 h 24.63999 v -13.2533 h -24.63999 v -11.6667 z m 27.25339,51.33335 v -65.33335 h -18.01333 v 65.33335 z m 50.58675,-65.33335 v 37.8934 l -21.37333,-37.8934 h -19.50666 v 65.33335 h 17.26666 v -37.79995 l 21.37333,37.79995 h 19.50666 v -65.33335 z"
       id="text1-6-4"
       style="font-weight:bold;font-size:93.3333px;line-height:0;font-family:'Eloquia Display';-inkscape-font-specification:'Eloquia Display Bold';text-align:center;white-space:pre;fill:#ffffff;stroke-width:0.377953"
       transform="matrix(0.05602456,0,0,0.05602456,262.83637,122.86372)"
       aria-label="DEIN VEREIN" />
    <path
       d="m -860.11132,-1043.9184 h -25.94666 v 65.33335 h 25.94666 c 21.46666,0 33.87999,-12.03999 33.87999,-32.66665 0,-21.3733 -11.57333,-32.6667 -33.87999,-32.6667 z m -2.33333,51.33336 h -5.6 v -37.33336 h 5.6 c 11.94666,0 17.63999,5.9734 17.63999,18.6667 0,12.03999 -6.25333,18.66666 -17.63999,18.66666 z m 90.44,-37.33336 v -14 h -46.38665 v 65.33335 h 46.38665 v -13.99999 h -28.37332 v -12.41336 h 24.63999 v -13.2533 h -24.63999 v -11.6667 z m 27.25339,51.33335 v -65.33335 h -18.01333 v 65.33335 z m 50.58673,-65.33335 v 37.8934 l -21.37333,-37.8934 h -19.50666 v 65.33335 h 17.26666 v -37.79995 l 21.37333,37.79995 h 19.50666 v -65.33335 z m 73.3599,14 v -14 h -46.38665 v 65.33335 h 46.38665 v -13.99999 h -28.37332 v -12.41336 h 24.63999 v -13.2533 h -24.63999 v -11.6667 z m 58.14667,38.08002 c -8.86667,0 -14.46666,-7.46666 -14.46666,-19.41332 0,-11.8533 5.59999,-19.4133 14.37332,-19.4133 6.81334,0 12.13333,4.5733 13.06667,11.3866 h 18.38666 c -1.12,-15.2133 -14,-25.76 -31.45333,-25.76 -19.59999,0 -32.75998,13.44 -32.75998,33.6934 0,20.25329 13.15999,33.87995 32.75998,33.87995 17.17333,0 29.86666,-10.26666 31.82666,-25.75995 h -18.57333 c -1.02666,6.99996 -6.06666,11.38662 -13.15999,11.38662 z m 39.57334,13.25333 h 18.01333 v -19.97332 h 8.02666 l 9.8,19.97332 h 18.94666 l -12.78667,-23.23995 c 6.90667,-3.7334 10.92,-10.7334 10.92,-19.2267 0,-13.6267 -9.42666,-22.8667 -23.51999,-22.8667 h -29.39999 z m 25.47999,-33.97335 h -7.65333 v -17.36 h 7.65333 c 5.6,0 9.14666,3.36 9.14666,8.68 0,5.32 -3.54666,8.68 -9.14666,8.68 z m 81.94658,-17.36 v -14 h -46.38665 v 65.33335 h 46.38665 v -13.99999 h -28.37333 v -12.41336 h 24.64 v -13.2533 h -24.64 v -11.6667 z m 77.00003,-14 -8.77333,43.12 -10.63999,-42.1866 h -14.74667 l -10.63999,42.1866 -8.77333,-43.12 h -17.26666 l 15.30666,65.33335 h 17.63999 l 11.10666,-41.43995 11.10667,41.43995 h 17.54666 l 15.39999,-65.33335 z"
       id="text1-8"
       style="font-weight:bold;font-size:93.3333px;line-height:0;font-family:'Eloquia Display';-inkscape-font-specification:'Eloquia Display Bold';text-align:center;white-space:pre;fill:#ffffff;stroke-width:0.377953"
       transform="matrix(0.26458333,0,0,0.26458333,296.22106,340.59149)"
       aria-label="DEINE CREW" />
    <text
       xml:space="preserve"
       transform="scale(0.26458333)"
       id="text2"
       style="font-weight:bold;font-size:96px;line-height:0;font-family:'Eloquia Display';-inkscape-font-specification:'Eloquia Display Bold';text-align:center;writing-mode:lr-tb;direction:ltr;white-space:pre;shape-inside:url(#rect2);fill:#ffffff;stroke-width:0.377953" />
    <text
       xml:space="preserve"
       transform="scale(0.26458333)"
       id="text3"
       style="font-weight:bold;font-size:96px;line-height:0;font-family:'Eloquia Display';-inkscape-font-specification:'Eloquia Display Bold';text-align:center;writing-mode:lr-tb;direction:ltr;white-space:pre;shape-inside:url(#rect3);fill:#ffffff;stroke-width:0.377953" />
  </g>
</svg>
