<?xml version="1.0" encoding="UTF-8" standalone="no"?>
<svg
   version="1.0"
   width="282.000000pt"
   height="78.000000pt"
   viewBox="0 0 282.000000 78.000000"
   preserveAspectRatio="xMidYMid meet"
   id="svg5"
   sodipodi:docname="MFA_Logo White.svg"
   inkscape:version="1.4.2 (ebf0e940, 2025-05-08)"
   xmlns:inkscape="http://www.inkscape.org/namespaces/inkscape"
   xmlns:sodipodi="http://sodipodi.sourceforge.net/DTD/sodipodi-0.dtd"
   xmlns="http://www.w3.org/2000/svg"
   xmlns:svg="http://www.w3.org/2000/svg">
  <defs
     id="defs5" />
  <sodipodi:namedview
     id="namedview5"
     pagecolor="#ffffff"
     bordercolor="#000000"
     borderopacity="0.25"
     inkscape:showpageshadow="2"
     inkscape:pageopacity="0.0"
     inkscape:pagecheckerboard="0"
     inkscape:deskcolor="#d1d1d1"
     inkscape:document-units="pt"
     inkscape:zoom="2.2712766"
     inkscape:cx="188"
     inkscape:cy="51.953162"
     inkscape:window-width="3840"
     inkscape:window-height="1995"
     inkscape:window-x="1800"
     inkscape:window-y="25"
     inkscape:window-maximized="1"
     inkscape:current-layer="svg5" />
  <g
     transform="translate(0.000000,78.000000) scale(0.100000,-0.100000)"
     fill="#000000"
     stroke="none"
     id="g5"
     style="fill:#ffffff">
    <path
       d="M0 390 l0 -390 1410 0 1410 0 0 390 0 390 -1410 0 -1410 0 0 -390z m700 5 l0 -315 -315 0 -315 0 0 315 0 315 315 0 315 0 0 -315z m670 0 l0 -315 -310 0 -310 0 0 315 0 315 310 0 310 0 0 -315z m680 0 l0 -315 -310 0 -310 0 0 315 0 315 310 0 310 0 0 -315z m680 0 l0 -315 -315 0 -315 0 0 315 0 315 315 0 315 0 0 -315z"
       id="path1"
       style="fill:#ffffff" />
    <path
       d="M150 395 l0 -205 85 0 85 0 0 96 0 96 31 -26 c36 -31 37 -31 69 -6 14 11 28 20 33 20 4 0 7 -40 7 -90 l0 -90 80 0 80 0 0 205 0 205 -79 0 -80 0 -38 -46 -38 -47 -40 47 -41 46 -77 0 -77 0 0 -205z"
       id="path2"
       style="fill:#ffffff" />
    <path
       d="M910 395 l0 -205 80 0 79 0 3 68 3 67 58 3 57 3 0 44 0 44 -57 3 c-57 3 -58 3 -61 36 l-3 32 80 0 81 0 0 55 0 55 -160 0 -160 0 0 -205z"
       id="path3"
       style="fill:#ffffff" />
    <path
       d="M1635 583 c-36 -92 -145 -384 -145 -388 0 -3 38 -5 83 -5 l84 0 12 40 12 40 63 0 64 0 16 -40 16 -40 86 0 c77 0 85 2 80 18 -3 9 -39 100 -80 202 l-74 185 -105 3 c-93 2 -105 1 -112 -15z m141 -207 c6 -24 4 -26 -30 -26 -41 0 -43 6 -19 69 l17 45 13 -31 c6 -17 15 -42 19 -57z"
       id="path4"
       style="fill:#ffffff" />
    <path
       d="M2368 478 l-3 -53 -52 -3 c-53 -3 -53 -3 -53 -37 0 -34 0 -34 53 -37 l52 -3 3 -52 3 -53 40 0 39 0 0 55 0 55 50 0 50 0 0 34 c0 34 -1 35 -47 38 l-48 3 -3 53 -3 52 -39 0 -39 0 -3 -52z"
       id="path5"
       style="fill:#ffffff" />
  </g>
</svg>
