<?xml version="1.0" encoding="UTF-8" standalone="no"?>
<!-- Created with Inkscape (http://www.inkscape.org/) -->

<svg
   width="193mm"
   height="40.5mm"
   viewBox="0 0 193 40.5"
   version="1.1"
   id="svg1"
   sodipodi:docname="SRSC FULL LOGO White.svg"
   inkscape:export-filename="SRSC Logo Black.png"
   inkscape:export-xdpi="2343.8899"
   inkscape:export-ydpi="2343.8899"
   inkscape:version="1.4.2 (ebf0e940, 2025-05-08)"
   xml:space="preserve"
   xmlns:inkscape="http://www.inkscape.org/namespaces/inkscape"
   xmlns:sodipodi="http://sodipodi.sourceforge.net/DTD/sodipodi-0.dtd"
   xmlns:xlink="http://www.w3.org/1999/xlink"
   xmlns="http://www.w3.org/2000/svg"
   xmlns:svg="http://www.w3.org/2000/svg"><sodipodi:namedview
     id="namedview1"
     pagecolor="#ffffff"
     bordercolor="#000000"
     borderopacity="0.25"
     inkscape:showpageshadow="2"
     inkscape:pageopacity="0.0"
     inkscape:pagecheckerboard="0"
     inkscape:deskcolor="#d1d1d1"
     inkscape:document-units="mm"
     inkscape:zoom="1.7589053"
     inkscape:cx="528.45369"
     inkscape:cy="5.1168189"
     inkscape:window-width="3840"
     inkscape:window-height="1995"
     inkscape:window-x="1800"
     inkscape:window-y="25"
     inkscape:window-maximized="1"
     inkscape:current-layer="layer1" /><defs
     id="defs1"><rect
       x="442.52356"
       y="66.378532"
       width="124.66213"
       height="145.16933"
       id="rect5" /><linearGradient
       id="linearGradient9"
       inkscape:collect="always"><stop
         style="stop-color:#000000;stop-opacity:1;"
         offset="0"
         id="stop9" /><stop
         style="stop-color:#000000;stop-opacity:0;"
         offset="1"
         id="stop10" /></linearGradient><rect
       x="44"
       y="-50.5"
       width="144.5"
       height="420"
       id="rect9" /><rect
       x="153.52599"
       y="540.67847"
       width="1468.8781"
       height="221.29626"
       id="rect2" /><rect
       x="124.6008"
       y="200.25128"
       width="910.03857"
       height="324.73242"
       id="rect1" /><radialGradient
       inkscape:collect="always"
       xlink:href="#linearGradient9"
       id="radialGradient1"
       cx="52.155388"
       cy="42.865486"
       fx="52.155388"
       fy="42.865486"
       r="2.6381848"
       gradientUnits="userSpaceOnUse"
       gradientTransform="matrix(1.0224635,0,0,1.0224635,5.5837006,-0.25330582)" /><radialGradient
       inkscape:collect="always"
       xlink:href="#linearGradient9"
       id="radialGradient1-4"
       cx="52.155388"
       cy="42.865486"
       fx="52.155388"
       fy="42.865486"
       r="2.6381848"
       gradientUnits="userSpaceOnUse"
       gradientTransform="matrix(1.0224635,0,0,1.0224635,-22.520116,4.7430321)" /><radialGradient
       inkscape:collect="always"
       xlink:href="#linearGradient9"
       id="radialGradient1-0"
       cx="52.155388"
       cy="42.865486"
       fx="52.155388"
       fy="42.865486"
       r="2.6381848"
       gradientUnits="userSpaceOnUse"
       gradientTransform="matrix(1.0224635,0,0,1.0224635,-22.520116,4.7430321)" /><radialGradient
       inkscape:collect="always"
       xlink:href="#linearGradient9"
       id="radialGradient1-3"
       cx="52.155388"
       cy="42.865486"
       fx="52.155388"
       fy="42.865486"
       r="2.6381848"
       gradientUnits="userSpaceOnUse"
       gradientTransform="matrix(1.0224635,0,0,1.0224635,57.223291,4.7430321)" /><radialGradient
       inkscape:collect="always"
       xlink:href="#linearGradient9"
       id="radialGradient1-40"
       cx="52.174431"
       cy="8.5847244"
       fx="52.174431"
       fy="8.5847244"
       r="2.6381848"
       gradientUnits="userSpaceOnUse"
       gradientTransform="matrix(1.0224635,0,0,1.0224635,-22.470508,-0.3296909)" /><radialGradient
       inkscape:collect="always"
       xlink:href="#linearGradient9"
       id="radialGradient1-9"
       cx="52.155388"
       cy="42.865486"
       fx="52.155388"
       fy="42.865486"
       r="2.6381848"
       gradientUnits="userSpaceOnUse"
       gradientTransform="matrix(1.0224635,0,0,1.0224635,-22.465585,4.7430321)" /><radialGradient
       inkscape:collect="always"
       xlink:href="#linearGradient9"
       id="radialGradient1-5"
       cx="52.155388"
       cy="42.865486"
       fx="52.155388"
       fy="42.865486"
       r="2.6381848"
       gradientUnits="userSpaceOnUse"
       gradientTransform="matrix(1.0224635,0,0,1.0224635,-22.470508,-0.25330582)" /><radialGradient
       inkscape:collect="always"
       xlink:href="#linearGradient9"
       id="radialGradient4"
       cx="52.155388"
       cy="42.865486"
       fx="52.155388"
       fy="42.865486"
       r="2.6381848"
       gradientUnits="userSpaceOnUse"
       gradientTransform="matrix(1.0224635,0,0,1.0224635,-22.465585,4.7430321)" /><radialGradient
       inkscape:collect="always"
       xlink:href="#linearGradient9"
       id="radialGradient8"
       cx="52.155388"
       cy="42.865486"
       fx="52.155388"
       fy="42.865486"
       r="2.6381848"
       gradientUnits="userSpaceOnUse"
       gradientTransform="matrix(1.0224635,0,0,1.0224635,-22.421677,9.7495006)" /><radialGradient
       inkscape:collect="always"
       xlink:href="#linearGradient9"
       id="radialGradient14-9"
       cx="52.155388"
       cy="42.865486"
       fx="52.155388"
       fy="42.865486"
       r="2.6381848"
       gradientUnits="userSpaceOnUse"
       gradientTransform="matrix(1.0224635,0,0,1.0224635,-22.488832,-5.221748)" /><radialGradient
       inkscape:collect="always"
       xlink:href="#linearGradient9"
       id="radialGradient1-51"
       cx="52.155388"
       cy="42.865486"
       fx="52.155388"
       fy="42.865486"
       r="2.6381848"
       gradientUnits="userSpaceOnUse"
       gradientTransform="matrix(1.0224635,0,0,1.0224635,61.93536,-5.2112855)" /></defs><g
     inkscape:label="Ebene 1"
     inkscape:groupmode="layer"
     id="layer1"><path
       style="font-weight:bold;font-size:107.762px;font-family:'Eloquia Display';-inkscape-font-specification:'Eloquia Display Bold';text-align:center;white-space:pre;stroke-width:1.23172;fill:#ffffff"
       d="m 249.8522,658.98725 c 0,-4.09496 3.77167,-6.68125 9.37529,-6.68125 6.2502,0 10.34515,3.01734 11.09949,7.97439 h 19.18163 c -1.07762,-14.22458 -12.82367,-23.38435 -29.95783,-23.38435 -17.78073,0 -29.63455,9.80634 -29.63455,24.13869 0,11.53053 7.75886,18.75059 24.13869,22.09121 l 4.74152,0.96986 c 9.26754,1.93971 12.60816,4.09495 12.60816,7.97438 0,4.31048 -4.20272,7.22006 -10.45292,7.22006 -7.32781,0 -12.71591,-3.9872 -12.93144,-9.48306 h -20.04373 c 0.8621,15.94878 13.47025,25.10855 32.43636,25.10855 19.61269,0 31.35875,-9.69858 31.35875,-25.10855 0,-11.96158 -6.57349,-17.88849 -24.03093,-21.66016 l -5.06481,-1.07762 c -9.3753,-2.04748 -12.82368,-4.09496 -12.82368,-8.08215 z m 92.67542,13.47025 25.10855,-34.26832 h -23.92316 l -22.30674,31.25098 V 638.18918 H 300.6082 v 75.4334 h 20.79807 v -17.24192 l 6.89677,-8.94424 16.91863,26.18616 h 24.56974 z m 54.20423,41.16508 v -75.4334 h -20.79807 v 75.4334 z m 76.9421,-75.4334 v 46.55319 c 0,9.05201 -4.31048,13.9013 -12.17711,13.9013 -7.75886,0 -12.06934,-4.84929 -12.06934,-13.9013 v -46.55319 h -20.79807 v 47.52305 c 0,17.67296 13.0392,29.2035 32.86741,29.2035 19.93597,0 32.97517,-11.53054 32.97517,-29.2035 v -47.52305 z m 79.20509,0 v 43.75138 l -24.6775,-43.75138 h -22.52226 v 75.4334 h 19.93597 v -43.64361 l 24.6775,43.64361 h 22.52226 v -75.4334 z m 61.10097,0 h -29.95783 v 75.4334 h 29.95783 c 24.78526,0 39.11761,-13.90129 39.11761,-37.7167 0,-24.6775 -13.36249,-37.7167 -39.11761,-37.7167 z m -2.69405,59.2691 h -6.46572 v -43.1048 h 6.46572 c 13.79354,0 20.36702,6.89677 20.36702,21.5524 0,13.9013 -7.22005,21.5524 -20.36702,21.5524 z m 71.55396,16.1643 h 20.79807 v -23.06106 h 9.26753 l 11.31501,23.06106 h 21.87569 l -14.76339,-26.83273 c 7.97438,-4.31048 12.60815,-12.39263 12.60815,-22.19898 0,-15.73325 -10.88396,-26.40169 -27.15602,-26.40169 h -33.94504 z m 29.41903,-39.22536 h -8.83648 v -20.04374 h 8.83648 c 6.46572,0 10.56068,3.87943 10.56068,10.02187 0,6.14243 -4.09496,10.02187 -10.56068,10.02187 z m 85.6707,-36.20804 h -22.63002 l -26.29393,75.4334 h 20.04373 l 3.9872,-12.71591 h 27.15602 l 3.9872,12.71591 h 20.04373 z m -21.01359,48.27738 9.69858,-31.25098 9.69858,31.25098 z m 84.16216,-48.27738 h -29.95784 v 75.4334 h 29.95784 c 24.78526,0 39.1176,-13.90129 39.1176,-37.7167 0,-24.6775 -13.36248,-37.7167 -39.1176,-37.7167 z m -2.69405,59.2691 h -6.46572 v -43.1048 h 6.46572 c 13.79353,0 20.36702,6.89677 20.36702,21.5524 0,13.9013 -7.22006,21.5524 -20.36702,21.5524 z m 70.26087,-38.47103 c 0,-4.09496 3.77167,-6.68125 9.3753,-6.68125 6.25019,0 10.34515,3.01734 11.09948,7.97439 h 19.18164 c -1.07762,-14.22458 -12.82368,-23.38435 -29.95784,-23.38435 -17.78073,0 -29.63455,9.80634 -29.63455,24.13869 0,11.53053 7.75887,18.75059 24.13869,22.09121 l 4.74153,0.96986 c 9.26753,1.93971 12.60815,4.09495 12.60815,7.97438 0,4.31048 -4.20271,7.22006 -10.45291,7.22006 -7.32782,0 -12.71592,-3.9872 -12.93144,-9.48306 h -20.04373 c 0.86209,15.94878 13.47025,25.10855 32.43636,25.10855 19.61268,0 31.35874,-9.69858 31.35874,-25.10855 0,-11.96158 -6.57348,-17.88849 -24.03092,-21.66016 l -5.06482,-1.07762 c -9.37529,-2.04748 -12.82368,-4.09496 -12.82368,-8.08215 z m 83.62336,-20.79807 h -32.86738 v 75.4334 h 20.79808 v -21.76792 h 12.0693 c 16.2721,0 27.1561,-10.7762 27.1561,-26.83274 0,-16.05654 -10.884,-26.83274 -27.1561,-26.83274 z m -4.526,37.50118 h -7.5433 v -21.33688 h 7.5433 c 6.4657,0 10.5607,4.20272 10.5607,10.66844 0,6.46572 -4.095,10.66844 -10.5607,10.66844 z M 1084.9,636.89604 c -23.4921,0 -39.2253,15.51773 -39.2253,39.00984 0,23.49212 15.7332,39.00985 39.2253,39.00985 23.4922,0 39.1176,-15.51773 39.1176,-39.00985 0,-23.49211 -15.6254,-39.00984 -39.1176,-39.00984 z m 0,61.42434 c -11.0994,0 -17.9962,-8.62096 -17.9962,-22.4145 0,-13.79353 6.8968,-22.41449 17.9962,-22.41449 10.9918,0 17.8885,8.62096 17.8885,22.41449 0,13.79354 -6.8967,22.4145 -17.8885,22.4145 z m 48.1697,15.3022 h 20.7981 v -23.06106 h 9.2675 l 11.315,23.06106 h 21.8757 l -14.7634,-26.83273 c 7.9744,-4.31048 12.6082,-12.39263 12.6082,-22.19898 0,-15.73325 -10.884,-26.40169 -27.156,-26.40169 h -33.9451 z m 29.419,-39.22536 h -8.8364 v -20.04374 h 8.8364 c 6.4658,0 10.5607,3.87943 10.5607,10.02187 0,6.14243 -4.0949,10.02187 -10.5607,10.02187 z m 37.7167,-36.20804 v 16.1643 h 21.6601 v 59.2691 h 20.7981 v -59.2691 h 21.6601 v -16.1643 z m 103.7745,60.1312 c -10.2373,0 -16.7031,-8.62096 -16.7031,-22.4145 0,-13.68577 6.4658,-22.41449 16.5954,-22.41449 7.8666,0 14.009,5.28033 15.0867,13.14696 h 21.2291 c -1.2932,-17.56521 -16.1643,-29.74231 -36.3158,-29.74231 -22.63,0 -37.8245,15.51773 -37.8245,38.90208 0,23.38436 15.1945,39.11761 37.8245,39.11761 19.8282,0 34.4838,-11.85382 36.7468,-29.74231 h -21.4446 c -1.1854,8.08215 -7.0045,13.14696 -15.1945,13.14696 z m 66.4893,-0.8621 v -59.2691 h -20.7981 v 75.4334 h 51.5102 v -16.1643 z m 82.9768,-59.2691 v 46.55319 c 0,9.05201 -4.3105,13.9013 -12.1771,13.9013 -7.7589,0 -12.0694,-4.84929 -12.0694,-13.9013 v -46.55319 h -20.7981 v 47.52305 c 0,17.67296 13.0393,29.2035 32.8675,29.2035 19.9359,0 32.9751,-11.53054 32.9751,-29.2035 v -47.52305 z m 78.1274,35.13042 c 8.1899,-1.7242 13.4702,-8.18992 13.4702,-16.37983 0,-10.99172 -8.9442,-18.75059 -21.5524,-18.75059 h -38.0399 v 75.4334 h 39.1176 c 13.7935,0 24.1386,-9.15977 24.1386,-21.44463 0,-9.59082 -7.1122,-17.45745 -17.1341,-18.85835 z m -25.3241,-21.0136 h 9.4831 c 4.957,0 8.2976,3.23286 8.2976,7.97439 0,4.84929 -3.3406,8.18992 -8.2976,8.18992 h -9.4831 z m 10.6685,46.98424 h -10.6685 v -18.96611 h 9.9141 c 7.2201,0 11.5306,3.55614 11.5306,9.80634 0,5.49586 -4.526,9.15977 -10.7762,9.15977 z"
       id="text2"
       transform="matrix(0.1228005,0,0,0.1228005,-15.341539,-47.642061)"
       aria-label="SKI UND RADSPORTCLUB" /><path
       style="font-size:142.613px;font-family:'Eloquia Display';-inkscape-font-specification:'Eloquia Display';text-align:center;white-space:pre;shape-padding:0.933047;stroke-width:1.01064;fill:#ffffff"
       d="m 202.48,366.53041 c 0,-5.4193 4.99146,-8.84201 12.40733,-8.84201 8.27156,0 13.69085,3.99317 14.68914,10.55336 h 25.38512 c -1.42613,-18.82491 -16.97095,-30.94702 -39.64642,-30.94702 -23.53114,0 -39.21857,12.97779 -39.21857,31.94532 0,15.25959 10.26813,24.81466 31.94531,29.23566 l 6.27497,1.28352 c 12.26472,2.56703 16.68572,5.41929 16.68572,10.55336 0,5.70452 -5.5619,9.55507 -13.83346,9.55507 -9.69768,0 -16.82833,-5.27668 -17.11356,-12.54994 h -26.52602 c 1.14091,21.10672 17.82663,33.22883 42.92652,33.22883 25.95556,0 41.50038,-12.83517 41.50038,-33.22883 0,-15.83005 -8.69939,-23.67376 -31.8027,-28.66522 l -6.70281,-1.42613 C 207.04362,374.51674 202.48,371.80709 202.48,366.53041 Z m 67.17087,72.30479 h 27.52431 v -30.51918 h 12.26472 l 14.97437,30.51918 h 28.95044 l -19.53799,-35.51064 c 10.55337,-5.70452 16.68573,-16.40049 16.68573,-29.37828 0,-20.82149 -14.40392,-34.94018 -35.93848,-34.94018 h -44.9231 z m 38.93335,-51.91113 h -11.69426 v -26.52602 h 11.69426 c 8.55678,0 13.97608,5.13407 13.97608,13.26301 0,8.12894 -5.4193,13.26301 -13.97608,13.26301 z m 80.0058,-20.39366 c 0,-5.4193 4.99145,-8.84201 12.40733,-8.84201 8.27155,0 13.69085,3.99317 14.68914,10.55336 h 25.38512 c -1.42614,-18.82491 -16.97095,-30.94702 -39.64642,-30.94702 -23.53115,0 -39.21858,12.97779 -39.21858,31.94532 0,15.25959 10.26814,24.81466 31.94532,29.23566 l 6.27497,1.28352 c 12.26472,2.56703 16.68572,5.41929 16.68572,10.55336 0,5.70452 -5.56191,9.55507 -13.83346,9.55507 -9.69769,0 -16.82834,-5.27668 -17.11356,-12.54994 h -26.52602 c 1.1409,21.10672 17.82662,33.22883 42.92651,33.22883 25.95557,0 41.50039,-12.83517 41.50039,-33.22883 0,-15.83005 -8.6994,-23.67376 -31.8027,-28.66522 l -6.70281,-1.42613 c -12.40734,-2.70964 -16.97095,-5.41929 -16.97095,-10.69597 z m 114.51839,52.05375 c -13.54823,0 -22.10501,-11.40904 -22.10501,-29.66351 0,-18.11185 8.55678,-29.66351 21.9624,-29.66351 10.41075,0 18.53969,6.98804 19.96582,17.39879 h 28.09476 c -1.71135,-23.24592 -21.39195,-39.36119 -48.06058,-39.36119 -29.94873,0 -50.05717,20.53627 -50.05717,51.4833 0,30.94702 20.10844,51.76852 50.05717,51.76852 26.24079,0 45.63616,-15.68743 48.63103,-39.36119 h -28.37998 c -1.56875,10.69597 -9.26985,17.39879 -20.10844,17.39879 z m 148.88796,-33.08622 c 10.83859,-2.28181 17.82663,-10.83859 17.82663,-21.67718 0,-14.54653 -11.83688,-24.81466 -28.5226,-24.81466 h -50.34239 v 99.8291 h 51.76852 c 18.25446,0 31.94531,-12.1221 31.94531,-28.37999 0,-12.69255 -9.41246,-23.1033 -22.67547,-24.95727 z M 618.48232,357.6884 h 12.54994 c 6.5602,0 10.9812,4.27839 10.9812,10.55336 0,6.41759 -4.421,10.83859 -10.9812,10.83859 h -12.54994 z m 14.11869,62.17927 h -14.11869 v -25.09989 h 13.12039 c 9.55508,0 15.2596,4.70623 15.2596,12.97779 0,7.27326 -5.98975,12.1221 -14.2613,12.1221 z m 111.6659,-80.86157 h -29.94873 l -34.79757,99.8291 h 26.52602 l 5.27668,-16.82833 h 35.93848 l 5.27668,16.82833 h 26.52602 z m -27.80953,63.89062 12.83517,-41.35777 12.83517,41.35777 z m 112.80679,15.68744 c -13.54823,0 -22.10501,-11.40904 -22.10501,-29.66351 0,-18.11185 8.55678,-29.66351 21.9624,-29.66351 10.41075,0 18.53969,6.98804 19.96582,17.39879 h 28.09476 c -1.71135,-23.24592 -21.39195,-39.36119 -48.06058,-39.36119 -29.94873,0 -50.05716,20.53627 -50.05716,51.4833 0,30.94702 20.10843,51.76852 50.05716,51.76852 26.24079,0 45.63616,-15.68743 48.63104,-39.36119 h -28.37999 c -1.56874,10.69597 -9.26985,17.39879 -20.10844,17.39879 z M 955.0489,339.0061 v 38.64812 H 917.25646 V 339.0061 h -27.52431 v 99.8291 h 27.52431 v -39.78903 h 37.79244 v 39.78903 h 27.3817 v -99.8291 z"
       id="text1"
       transform="matrix(0.23665865,0,0,0.23984593,-40.352704,-80.497955)"
       aria-label="SRSC BACH" /><text
       xml:space="preserve"
       transform="scale(0.26458333)"
       id="text9"
       style="font-style:normal;font-variant:normal;font-weight:bold;font-stretch:normal;font-size:45.3333px;font-family:'72';-inkscape-font-specification:'72, Bold';font-variant-ligatures:normal;font-variant-caps:normal;font-variant-numeric:normal;font-variant-east-asian:normal;text-align:center;writing-mode:lr-tb;direction:ltr;white-space:pre;shape-inside:url(#rect9);display:inline;fill:#000000" /><path
       style="font-weight:bold;font-size:5.241px;font-family:'Eloquia Display';-inkscape-font-specification:'Eloquia Display Bold';stroke-width:0.0768066;fill:#ffffff"
       d="m 178.12843,30.746522 c -1.24736,0 -2.10688,0.859524 -2.10688,2.0964 0,1.242117 0.85952,2.0964 2.10688,2.0964 1.24736,0 2.10688,-0.854283 2.10688,-2.091159 0,-1.242117 -0.85952,-2.101641 -2.10688,-2.101641 z m 0,3.736833 c -0.96434,0 -1.60375,-0.649884 -1.60375,-1.640433 0,-0.990549 0.63941,-1.640433 1.60375,-1.640433 0.96434,0 1.60375,0.649884 1.60375,1.640433 0,0.990549 -0.63941,1.640433 -1.60375,1.640433 z m 0.021,-1.001031 c -0.33018,0 -0.54506,-0.251568 -0.54506,-0.639402 0,-0.387834 0.21488,-0.639402 0.54506,-0.639402 0.23061,0 0.40356,0.125784 0.45597,0.345906 h 0.48217 c -0.0367,-0.476931 -0.44548,-0.78615 -0.94862,-0.78615 -0.60271,0 -1.02723,0.450726 -1.02723,1.079646 0,0.62892 0.42452,1.079646 1.04296,1.079646 0.48741,0 0.88048,-0.283014 0.93289,-0.78615 h -0.48217 c -0.0524,0.220122 -0.22536,0.345906 -0.45597,0.345906 z"
       id="text3"
       aria-label="©&#10;" /><text
       xml:space="preserve"
       transform="scale(0.26458333)"
       id="text5"
       style="font-weight:bold;font-size:29.3333px;line-height:0;font-family:'Eloquia Display';-inkscape-font-specification:'Eloquia Display Bold';text-align:center;writing-mode:lr-tb;direction:ltr;white-space:pre;shape-inside:url(#rect5);display:inline;fill:#000000;stroke-width:0.377953" /></g></svg>
